*
G04 Mass Parameters ***
*
G04 Image ***
*
%INC:\USERS\DAN\DOCUMENTS\GITHUB\SOLAR_PANEL_MONITORING\SPMON_2025\PRJ.HW\ORCAD_SCHEMATIC_LAYOUT\SPMON_SLAVEBOARD\LAYOUT\SPMON_SLAVEBOARD.AST*%
%ICAS*%
%MOIN*%
%IPPOS*%
%ASAXBY*%
G74*%FSLAN2X34Y34*%
*
G04 Aperture Definitions ***
*
%ADD10C,0.0620*%
%ADD11C,0.0450*%
%ADD12C,0.0010*%
%ADD13C,0.0100*%
%ADD14C,0.0120*%
%ADD15C,0.0700*%
%ADD16C,0.0650*%
%ADD17C,0.0500*%
%ADD18C,0.0670*%
%ADD19C,0.0080*%
%ADD20C,0.1100*%
%ADD21C,0.1000*%
%ADD22C,0.1400*%
%ADD23C,0.1050*%
*
G04 Plot Data ***
*
G54D13*
G01X-0005894Y-0012511D02*
X-0006161D01*
X-0006206Y-0012422D01*
Y-0012333D01*
X-0006161Y-0012244D01*
X-0005894D01*
X-0005850Y-0012333D01*
Y-0012422D01*
X-0006028Y-0012778D01*
X-0005894Y0015489D02*
X-0005850Y0015578D01*
Y0015667D01*
X-0005894Y0015755D01*
X-0006161D01*
X-0006206Y0015667D01*
Y0015578D01*
X-0006161Y0015489D01*
X-0005894D01*
X-0005850Y0015400D01*
Y0015311D01*
X-0005894Y0015222D01*
X-0006161D01*
X-0006206Y0015311D01*
Y0015400D01*
X-0006161Y0015489D01*
X-0064428Y0015222D02*
X-0064606D01*
X-0064517D02*
Y0015755D01*
X-0064606Y0015667D01*
X-0064939Y0015222D02*
X-0065117D01*
X-0065028D02*
Y0015755D01*
X-0065117Y0015667D01*
X-0064561Y-0012778D02*
X-0064650Y-0012689D01*
X-0064695Y-0012600D01*
Y-0012422D01*
X-0064650Y-0012333D01*
X-0064561Y-0012244D01*
X-0064472D01*
X-0064383Y-0012333D01*
X-0064339Y-0012422D01*
Y-0012600D01*
X-0064383Y-0012689D01*
X-0064472Y-0012778D01*
X-0064561D01*
X-0064939D02*
X-0065117D01*
X-0065028D02*
Y-0012244D01*
X-0065117Y-0012333D01*
X-0051917Y0013308D02*
X-0051833Y0013392D01*
X-0051750Y0013433D01*
X-0051583D01*
X-0051500Y0013392D01*
X-0051417Y0013308D01*
Y0013225D01*
X-0051500Y0013142D01*
X-0051583Y0013100D01*
X-0051750D01*
X-0051833Y0013142D01*
X-0051917Y0013225D01*
Y0013308D01*
Y0013675D02*
Y0013842D01*
Y0013758D02*
X-0051417D01*
X-0051500Y0013842D01*
X-0051750Y0014458D02*
X-0051833D01*
X-0051917Y0014417D01*
Y0014250D01*
X-0051833Y0014208D01*
X-0051417D01*
Y0014167D02*
Y0014333D01*
X-0053042Y0011333D02*
Y0011500D01*
Y0011417D02*
X-0052542D01*
X-0052625Y0011500D01*
X-0052875Y0011825D02*
Y0012158D01*
X-0052542Y0011992D01*
Y0011908D01*
X-0053042D01*
X-0052958Y0012733D02*
X-0053042Y0012650D01*
Y0012483D01*
X-0052958Y0012400D01*
X-0052875D01*
X-0052708Y0012567D01*
X-0052542Y0012400D01*
Y0012733D01*
X-0053042Y0013225D02*
X-0052542Y0012975D01*
Y0013308D01*
X-0052625Y0013550D02*
X-0052542Y0013592D01*
Y0013842D01*
X-0052625Y0013883D01*
X-0052708D01*
X-0052792Y0013842D01*
Y0013592D01*
X-0052875Y0013550D01*
X-0052958D01*
X-0053042Y0013592D01*
Y0013842D01*
X-0052958Y0013883D01*
X-0052875Y0014125D02*
Y0014458D01*
X-0053042Y0014125D02*
X-0052792D01*
X-0052542Y0014250D01*
Y0014333D01*
X-0052792Y0014458D01*
X-0053042D01*
X-0039667Y0013633D02*
Y0013883D01*
X-0039583Y0013925D01*
X-0039500D01*
X-0039417Y0013883D01*
Y0013633D01*
X-0039500Y0013592D01*
X-0039583D01*
X-0039917Y0013758D01*
X-0039750Y0014458D02*
X-0039833D01*
X-0039917Y0014417D01*
Y0014250D01*
X-0039833Y0014208D01*
X-0039417D01*
Y0014167D02*
Y0014333D01*
X-0041042Y0011542D02*
X-0040958Y0011625D01*
X-0040875Y0011667D01*
X-0040708D01*
X-0040625Y0011625D01*
X-0040542Y0011542D01*
Y0011458D01*
X-0040625Y0011375D01*
X-0040708Y0011333D01*
X-0040875D01*
X-0040958Y0011375D01*
X-0041042Y0011458D01*
Y0011542D01*
X-0040958Y0012242D02*
X-0041042Y0012200D01*
Y0011950D01*
X-0040958Y0011908D01*
X-0040792D01*
X-0040708Y0011992D01*
Y0012242D01*
X-0040542D01*
Y0011908D01*
X-0041042Y0012733D02*
X-0040542Y0012483D01*
Y0012817D01*
X-0041042Y0013058D02*
Y0013225D01*
Y0013142D02*
X-0040542D01*
X-0040625Y0013225D01*
X-0040792Y0013550D02*
Y0013883D01*
X-0041042Y0013550D02*
X-0040542D01*
X-0041042Y0013883D02*
X-0040542D01*
X-0041042Y0014417D02*
X-0040542D01*
X-0041042Y0014458D02*
Y0014208D01*
X-0040958Y0014125D01*
X-0040875D01*
X-0040792Y0014167D01*
Y0014417D02*
Y0014167D01*
X-0040708Y0014125D01*
X-0040625D01*
X-0040542Y0014208D01*
Y0014458D01*
X-0026667Y0013633D02*
X-0026583Y0013592D01*
X-0026500D01*
X-0026417Y0013633D01*
Y0013883D01*
X-0026500Y0013925D01*
X-0026583D01*
X-0026667Y0013883D01*
Y0013633D01*
X-0026750Y0013592D01*
X-0026833D01*
X-0026917Y0013633D01*
Y0013883D01*
X-0026833Y0013925D01*
X-0026750D01*
X-0026667Y0013883D01*
X-0026750Y0014458D02*
X-0026833D01*
X-0026917Y0014417D01*
Y0014250D01*
X-0026833Y0014208D01*
X-0026417D01*
Y0014167D02*
Y0014333D01*
X-0028042Y0011542D02*
X-0027958Y0011625D01*
X-0027875Y0011667D01*
X-0027708D01*
X-0027625Y0011625D01*
X-0027542Y0011542D01*
Y0011458D01*
X-0027625Y0011375D01*
X-0027708Y0011333D01*
X-0027875D01*
X-0027958Y0011375D01*
X-0028042Y0011458D01*
Y0011542D01*
X-0027792Y0011950D02*
X-0027708Y0011908D01*
X-0027625D01*
X-0027542Y0011950D01*
Y0012200D01*
X-0027625Y0012242D01*
X-0027708D01*
X-0027792Y0012200D01*
Y0011950D01*
X-0027875Y0011908D01*
X-0027958D01*
X-0028042Y0011950D01*
Y0012200D01*
X-0027958Y0012242D01*
X-0027875D01*
X-0027792Y0012200D01*
X-0028042Y0012483D02*
Y0012650D01*
Y0012567D02*
X-0027542D01*
X-0027625Y0012650D01*
X-0027792Y0013308D02*
Y0013058D01*
X-0027708Y0012975D01*
X-0027625D01*
X-0027542Y0013058D01*
Y0013308D01*
X-0028042D01*
Y0013550D02*
X-0027542D01*
X-0027625Y0013633D01*
X-0027792Y0013717D01*
X-0027625Y0013800D01*
X-0027542Y0013883D01*
X-0028042D01*
Y0014417D02*
X-0027542D01*
X-0028042Y0014458D02*
Y0014208D01*
X-0027958Y0014125D01*
X-0027875D01*
X-0027792Y0014167D01*
Y0014417D02*
Y0014167D01*
X-0027708Y0014125D01*
X-0027625D01*
X-0027542Y0014208D01*
Y0014458D01*
X-0029742Y0004458D02*
X-0029908D01*
X-0029825D02*
Y0004958D01*
X-0029908Y0004875D01*
X-0030233Y0004958D02*
Y0004792D01*
X-0030400Y0004458D01*
X-0030567Y0004792D01*
Y0004958D01*
X-0030808Y0004708D02*
X-0031142D01*
X-0031550Y0004458D02*
Y0004958D01*
X-0031383D02*
X-0031717D01*
X-0031958Y0004458D02*
X-0032125D01*
X-0032042D02*
Y0004958D01*
X-0031958D02*
X-0032125D01*
X-0032450Y0004458D02*
X-0032700Y0004708D01*
X-0032450Y0004958D01*
X-0032783D02*
Y0004458D01*
X-0033025Y0004958D02*
Y0004792D01*
X-0033192Y0004458D01*
X-0033358Y0004792D01*
Y0004958D01*
X-0033683Y0004708D02*
X-0033933D01*
X-0033600Y0004458D02*
X-0033933D01*
Y0004958D01*
X-0033600D01*
X-0034467Y0004458D02*
Y0004958D01*
X-0034508Y0004458D02*
X-0034258D01*
X-0034175Y0004625D01*
Y0004792D01*
X-0034258Y0004958D01*
X-0034508D01*
X-0034750Y0004708D02*
X-0035083D01*
X-0035325Y0004458D02*
X-0035658D01*
X-0035325Y0004792D01*
Y0004875D01*
X-0035367Y0004958D01*
X-0035617D01*
X-0035658Y0004875D01*
X-0036233Y0004542D02*
X-0036150Y0004458D01*
X-0035983D01*
X-0035900Y0004542D01*
Y0004625D01*
X-0036067Y0004792D01*
X-0035900Y0004958D01*
X-0036233D01*
X-0036808Y0004708D02*
X-0036558D01*
X-0036475Y0004792D01*
Y0004875D01*
X-0036558Y0004958D01*
X-0036808D01*
Y0004458D01*
X-0037050Y0004875D02*
X-0037092Y0004958D01*
X-0037342D01*
X-0037383Y0004875D01*
Y0004792D01*
X-0037342Y0004708D01*
X-0037092D01*
X-0037050Y0004625D01*
Y0004542D01*
X-0037092Y0004458D01*
X-0037342D01*
X-0037383Y0004542D01*
X-0037708Y0004708D02*
X-0037958D01*
X-0037625Y0004458D02*
X-0037958D01*
Y0004958D01*
X-0037625D01*
X-0037133Y0005583D02*
X-0037300D01*
X-0037217D02*
Y0006083D01*
X-0037300Y0006000D01*
X-0037625Y0006083D02*
Y0005667D01*
X-0037667Y0005583D01*
X-0037917D01*
X-0037958Y0005667D01*
Y0006083D01*
X-0014417Y0013342D02*
X-0013917Y0013092D01*
Y0013425D01*
X-0014250Y0013958D02*
X-0014333D01*
X-0014417Y0013917D01*
Y0013750D01*
X-0014333Y0013708D01*
X-0013917D01*
Y0013667D02*
Y0013833D01*
X-0015542Y0010467D02*
X-0015458Y0010550D01*
X-0015375Y0010592D01*
X-0015208D01*
X-0015125Y0010550D01*
X-0015042Y0010467D01*
Y0010383D01*
X-0015125Y0010300D01*
X-0015208Y0010258D01*
X-0015375D01*
X-0015458Y0010300D01*
X-0015542Y0010383D01*
Y0010467D01*
Y0010833D02*
Y0011167D01*
X-0015208Y0010833D01*
X-0015125D01*
X-0015042Y0010875D01*
Y0011125D01*
X-0015125Y0011167D01*
X-0015542Y0011700D02*
X-0015042D01*
X-0015542Y0011742D02*
Y0011492D01*
X-0015458Y0011408D01*
X-0015375D01*
X-0015292Y0011450D01*
Y0011700D02*
Y0011450D01*
X-0015208Y0011408D01*
X-0015125D01*
X-0015042Y0011492D01*
Y0011742D01*
X-0015292Y0012025D02*
X-0015208Y0011983D01*
X-0015125D01*
X-0015042Y0012025D01*
Y0012275D01*
X-0015125Y0012317D01*
X-0015208D01*
X-0015292Y0012275D01*
Y0012025D01*
X-0015375Y0011983D01*
X-0015458D01*
X-0015542Y0012025D01*
Y0012275D01*
X-0015458Y0012317D01*
X-0015375D01*
X-0015292Y0012275D01*
X-0015542Y0012558D02*
Y0012725D01*
Y0012642D02*
X-0015042D01*
X-0015125Y0012725D01*
Y0013050D02*
X-0015042Y0013092D01*
Y0013342D01*
X-0015125Y0013383D01*
X-0015208D01*
X-0015292Y0013342D01*
Y0013092D01*
X-0015375Y0013050D01*
X-0015458D01*
X-0015542Y0013092D01*
Y0013342D01*
X-0015458Y0013383D01*
X-0015542Y0013917D02*
X-0015042D01*
X-0015542Y0013958D02*
Y0013708D01*
X-0015375Y0013625D01*
X-0015208D01*
X-0015042Y0013708D01*
Y0013958D01*
X-0063833Y-0004383D02*
Y-0004133D01*
X-0063750Y-0004092D01*
X-0063667D01*
X-0063583Y-0004133D01*
Y-0004383D01*
X-0063667Y-0004425D01*
X-0063750D01*
X-0064083Y-0004258D01*
X-0063750Y-0004958D02*
X-0063667D01*
X-0063583Y-0004917D01*
Y-0004750D01*
X-0063667Y-0004708D01*
X-0064083D01*
Y-0004667D02*
Y-0004833D01*
X-0062458Y-0002492D02*
Y-0002658D01*
Y-0002575D02*
X-0062958D01*
X-0062875Y-0002658D01*
X-0062458Y-0002983D02*
Y-0003150D01*
Y-0003067D02*
X-0062958D01*
X-0062875Y-0003150D01*
X-0062458Y-0003642D02*
X-0062958D01*
Y-0003475D02*
Y-0003808D01*
X-0062708Y-0004050D02*
Y-0004383D01*
X-0062458Y-0004050D02*
X-0062958D01*
X-0062458Y-0004383D02*
X-0062958D01*
X-0062458Y-0004917D02*
X-0062958D01*
X-0062458Y-0004958D02*
Y-0004708D01*
X-0062625Y-0004625D01*
X-0062792D01*
X-0062958Y-0004708D01*
Y-0004958D01*
G54D17*
G01X-0003000Y0016250D02*
Y-0016250D01*
X-0066250D01*
Y0016250D01*
X-0003000D01*
G54D19*
G01X-0011308Y0012459D02*
Y0012348D01*
Y0012403D02*
X-0011641D01*
X-0011585Y0012348D01*
X-0011474Y0012021D02*
X-0011308Y0012104D01*
X-0011474Y0011882D02*
Y0012049D01*
X-0011530Y0012104D01*
X-0011585D01*
X-0011641Y0012049D01*
Y0011882D01*
X-0011308D01*
X-0010201Y0013045D02*
X-0010368Y0012879D01*
X-0010535Y0013045D01*
Y0012823D02*
X-0010201D01*
Y0012469D02*
X-0010535Y0012635D01*
Y0012413D01*
X-0010201Y0012170D02*
Y0012225D01*
X-0010257D01*
Y0012170D01*
X-0010201D01*
X-0010313Y0011927D02*
Y0011704D01*
X-0010535Y0011815D01*
Y0011871D01*
X-0010201D01*
X-0010625Y0011625D02*
Y0013375D01*
X-0011375D01*
Y0011625D01*
X-0010625D01*
X-0011000Y0013625D02*
Y0013375D01*
Y0011375D02*
Y0011625D01*
G54D11*
Y0011000D03*
Y0014000D03*
M02*
