*
G04 Mass Parameters ***
*
G04 Image ***
*
%INC:\USERS\DAN\DOCUMENTS\GITHUB\SOLAR_PANEL_MONITORING\SPMON_2025\PRJ.HW\ORCAD_SCHEMATIC_LAYOUT\SPMON_SLAVEBOARD\LAYOUT\SPMON_SLAVEBOARD.SST*%
%ICAS*%
%MOIN*%
%IPPOS*%
%ASAXBY*%
G74*%FSLAN2X34Y34*%
*
G04 Aperture Definitions ***
*
%ADD10C,0.0620*%
%ADD11C,0.0450*%
%ADD12C,0.1100*%
%ADD13C,0.0120*%
%ADD14C,0.1000*%
%ADD15C,0.0700*%
%ADD16C,0.0650*%
%ADD17C,0.1400*%
%ADD18C,0.0500*%
%ADD19C,0.0670*%
%ADD20C,0.1050*%
%ADD21C,0.0010*%
%ADD22C,0.0080*%
%ADD23C,0.0100*%
%ADD24C,0.0140*%
*
G04 Plot Data ***
*
G54D21*
G01X0017000Y0049500D02*
X0016500Y0050000D01*
X0017000Y0050500D01*
X0017500Y0050000D01*
X0017000Y0049500D01*
X0017500Y0050500D02*
X0016500D01*
Y0046500D01*
X0017500D01*
Y0050500D01*
X0012000Y0049500D02*
X0011500Y0050000D01*
X0012000Y0050500D01*
X0012500Y0050000D01*
X0012000Y0049500D01*
X0012500Y0050500D02*
X0011500D01*
Y0046500D01*
X0012500D01*
Y0050500D01*
X0008500Y0042000D02*
X0026000D01*
Y0030000D01*
X0007500D01*
Y0042000D01*
X0008500D01*
X0010500Y0041500D02*
X0010000D01*
Y0040500D01*
X0025500D01*
Y0041500D01*
X0010500D01*
X0010000Y0031500D02*
Y0030500D01*
X0025500D01*
Y0031500D01*
X0010000D01*
X0024500Y0041000D02*
X0025000Y0040500D01*
X0025500Y0041000D01*
X0025000Y0041500D01*
X0024500Y0041000D01*
X0011000Y0033000D02*
X0010000Y0032000D01*
X0008000D01*
Y0040000D01*
X0010000D01*
X0011000Y0039000D01*
Y0033000D01*
X0027000Y0049500D02*
X0026500Y0050000D01*
X0027000Y0050500D01*
X0027500Y0050000D01*
X0027000Y0049500D01*
X0027500Y0050500D02*
X0026500D01*
Y0047500D01*
X0027500D01*
Y0050500D01*
X0003500Y0031000D02*
X0003000Y0030500D01*
X0002500Y0031000D01*
X0003000Y0031500D01*
X0003500Y0031000D01*
X0002500Y0031500D02*
Y0030500D01*
X0005500D01*
Y0031500D01*
X0002500D01*
X0021000Y0049500D02*
X0020500Y0050000D01*
X0021000Y0050500D01*
X0021500Y0050000D01*
X0021000Y0049500D01*
X0021500Y0050500D02*
X0020500D01*
Y0046500D01*
X0021500D01*
Y0050500D01*
G54D22*
G01X0029442Y0048209D02*
Y0048098D01*
Y0048153D02*
X0029109D01*
X0029164Y0048098D01*
X0029276Y0047771D02*
X0029442Y0047854D01*
X0029276Y0047632D02*
Y0047799D01*
X0029220Y0047854D01*
X0029164D01*
X0029109Y0047799D01*
Y0047632D01*
X0029442D01*
X0030375Y0047625D02*
Y0049375D01*
X0029625D01*
Y0047625D01*
X0030375D01*
X0030000Y0049625D02*
Y0049375D01*
Y0047375D02*
Y0047625D01*
G54D23*
G01X0031105Y0029489D02*
X0030839D01*
X0030794Y0029578D01*
Y0029667D01*
X0030839Y0029755D01*
X0031105D01*
X0031150Y0029667D01*
Y0029578D01*
X0030972Y0029222D01*
X0031105Y0050489D02*
X0031150Y0050578D01*
Y0050667D01*
X0031105Y0050755D01*
X0030839D01*
X0030794Y0050667D01*
Y0050578D01*
X0030839Y0050489D01*
X0031105D01*
X0031150Y0050400D01*
Y0050311D01*
X0031105Y0050222D01*
X0030839D01*
X0030794Y0050311D01*
Y0050400D01*
X0030839Y0050489D01*
X0021792Y0027542D02*
X0021833Y0027458D01*
X0022083D01*
X0022125Y0027542D01*
Y0027708D01*
X0022042Y0027792D01*
X0021792D01*
Y0027958D01*
X0022125D01*
X0021550Y0027458D02*
X0021217D01*
X0021550Y0027792D01*
Y0027875D01*
X0021508Y0027958D01*
X0021258D01*
X0021217Y0027875D01*
X0020767Y0027458D02*
X0020683Y0027542D01*
X0020642Y0027625D01*
Y0027792D01*
X0020683Y0027875D01*
X0020767Y0027958D01*
X0020850D01*
X0020933Y0027875D01*
X0020975Y0027792D01*
Y0027625D01*
X0020933Y0027542D01*
X0020850Y0027458D01*
X0020767D01*
X0020400D02*
X0020067D01*
X0020400Y0027792D01*
Y0027875D01*
X0020358Y0027958D01*
X0020108D01*
X0020067Y0027875D01*
X0019825Y0027292D02*
X0019492D01*
X0019250Y0027958D02*
Y0027458D01*
X0019000D01*
X0018958Y0027542D01*
Y0027708D01*
X0019000Y0027792D01*
X0019250D01*
X0018717D02*
X0018550D01*
X0018508Y0027708D01*
X0018425D01*
Y0027792D02*
Y0027458D01*
X0017933Y0027792D02*
X0018100D01*
X0018142Y0027708D01*
Y0027542D01*
X0018183Y0027458D01*
X0017892D01*
X0017850Y0027542D01*
X0017892Y0027625D01*
X0018142D01*
X0017317Y0027458D02*
X0017275Y0027542D01*
Y0027708D01*
X0017317Y0027792D01*
X0017567D01*
X0017608Y0027708D01*
Y0027542D01*
X0017567Y0027458D01*
X0017317D01*
X0016742D02*
Y0027958D01*
X0016700Y0027458D02*
X0016950D01*
X0017033Y0027542D01*
Y0027625D01*
X0016992Y0027708D01*
X0016742D02*
X0016992D01*
X0017033Y0027792D01*
Y0027875D01*
X0016950Y0027958D01*
X0016700D01*
X0016417Y0027458D02*
X0016167D01*
X0016125Y0027542D01*
Y0027708D01*
X0016167Y0027792D01*
X0016417D01*
X0016458Y0027708D01*
Y0027625D01*
X0016125D01*
X0015883Y0027792D02*
X0015717Y0027458D01*
X0015550Y0027792D01*
X0015058D02*
X0015225D01*
X0015267Y0027708D01*
Y0027542D01*
X0015308Y0027458D01*
X0015017D01*
X0014975Y0027542D01*
X0015017Y0027625D01*
X0015267D01*
X0014733Y0027458D02*
X0014567D01*
X0014650D02*
Y0027958D01*
X0014567D01*
X0014283Y0027875D02*
X0014242Y0027958D01*
X0013992D01*
X0013950Y0027875D01*
Y0027792D01*
X0013992Y0027708D01*
X0014242D01*
X0014283Y0027625D01*
Y0027542D01*
X0014242Y0027458D01*
X0013992D01*
X0013950Y0027542D01*
X0013708Y0027292D02*
X0013375D01*
X0013133Y0027458D02*
Y0027708D01*
X0013092Y0027792D01*
X0012842D01*
Y0027458D01*
X0012308D02*
X0012267Y0027542D01*
Y0027708D01*
X0012308Y0027792D01*
X0012558D01*
X0012600Y0027708D01*
Y0027542D01*
X0012558Y0027458D01*
X0012308D01*
X0012025D02*
Y0027958D01*
X0011942Y0027875D01*
X0011858Y0027708D01*
X0011775Y0027875D01*
X0011692Y0027958D01*
Y0027458D01*
X0011117Y0027708D02*
X0011367D01*
X0011450Y0027792D01*
Y0027875D01*
X0011367Y0027958D01*
X0011117D01*
Y0027458D01*
X0010875Y0027875D02*
X0010833Y0027958D01*
X0010583D01*
X0010542Y0027875D01*
Y0027792D01*
X0010583Y0027708D01*
X0010833D01*
X0010875Y0027625D01*
Y0027542D01*
X0010833Y0027458D01*
X0010583D01*
X0010542Y0027542D01*
X0000572Y0050222D02*
X0000394D01*
X0000483D02*
Y0050755D01*
X0000394Y0050667D01*
X0000061Y0050222D02*
X-0000117D01*
X-0000028D02*
Y0050755D01*
X-0000117Y0050667D01*
X0000439Y0029222D02*
X0000350Y0029311D01*
X0000305Y0029400D01*
Y0029578D01*
X0000350Y0029667D01*
X0000439Y0029755D01*
X0000528D01*
X0000616Y0029667D01*
X0000661Y0029578D01*
Y0029400D01*
X0000616Y0029311D01*
X0000528Y0029222D01*
X0000439D01*
X0000061D02*
X-0000117D01*
X-0000028D02*
Y0029755D01*
X-0000117Y0029667D01*
X0024583Y0048808D02*
X0024667Y0048892D01*
X0024750Y0048933D01*
X0024917D01*
X0025000Y0048892D01*
X0025083Y0048808D01*
Y0048725D01*
X0025000Y0048642D01*
X0024917Y0048600D01*
X0024750D01*
X0024667Y0048642D01*
X0024583Y0048725D01*
Y0048808D01*
Y0049175D02*
Y0049342D01*
Y0049258D02*
X0025083D01*
X0025000Y0049342D01*
X0024750Y0049958D02*
X0024667D01*
X0024583Y0049917D01*
Y0049750D01*
X0024667Y0049708D01*
X0025083D01*
Y0049667D02*
Y0049833D01*
X0020833Y0049133D02*
Y0049383D01*
X0020917Y0049425D01*
X0021000D01*
X0021083Y0049383D01*
Y0049133D01*
X0021000Y0049092D01*
X0020917D01*
X0020583Y0049258D01*
X0020750Y0049958D02*
X0020667D01*
X0020583Y0049917D01*
Y0049750D01*
X0020667Y0049708D01*
X0021083D01*
Y0049667D02*
Y0049833D01*
X0015833Y0049133D02*
X0015917Y0049092D01*
X0016000D01*
X0016083Y0049133D01*
Y0049383D01*
X0016000Y0049425D01*
X0015917D01*
X0015833Y0049383D01*
Y0049133D01*
X0015750Y0049092D01*
X0015667D01*
X0015583Y0049133D01*
Y0049383D01*
X0015667Y0049425D01*
X0015750D01*
X0015833Y0049383D01*
X0015750Y0049958D02*
X0015667D01*
X0015583Y0049917D01*
Y0049750D01*
X0015667Y0049708D01*
X0016083D01*
Y0049667D02*
Y0049833D01*
X0011867Y0045583D02*
X0011700D01*
X0011783D02*
Y0046083D01*
X0011700Y0046000D01*
X0011375Y0046083D02*
Y0045667D01*
X0011333Y0045583D01*
X0011083D01*
X0011042Y0045667D01*
Y0046083D01*
X0030583Y0049342D02*
X0031083Y0049092D01*
Y0049425D01*
X0030750Y0049958D02*
X0030667D01*
X0030583Y0049917D01*
Y0049750D01*
X0030667Y0049708D01*
X0031083D01*
Y0049667D02*
Y0049833D01*
X0003617Y0034833D02*
X0003867D01*
X0003908Y0034750D01*
Y0034667D01*
X0003867Y0034583D01*
X0003617D01*
X0003575Y0034667D01*
Y0034750D01*
X0003742Y0035083D01*
X0003042Y0034750D02*
Y0034667D01*
X0003083Y0034583D01*
X0003250D01*
X0003292Y0034667D01*
Y0035083D01*
X0003333D02*
X0003167D01*
M02*
