*
G04 Mass Parameters ***
*
G04 Image ***
*
%INC:\USERS\DAN\DOCUMENTS\GITHUB\SOLAR_PANEL_MONITORING\SPMON_2025\PRJ.HW\ORCAD_SCHEMATIC_LAYOUT\SPMON_SLAVEBOARD\LAYOUT\SPMON_SLAVEBOARD.GND*%
%ICAS*%
%MOIN*%
%IPPOS*%
%ASAXBY*%
G74*%FSLAN2X34Y34*%
*
G04 Aperture Definitions ***
*
%ADD10C,0.0620*%
%ADD11C,0.0450*%
%ADD12C,0.1100*%
%ADD13C,0.0120*%
%ADD14C,0.1000*%
%ADD15C,0.0700*%
%ADD16C,0.0650*%
%ADD17C,0.1400*%
%ADD18C,0.0500*%
%ADD19C,0.0670*%
%ADD20C,0.1050*%
%ADD21C,0.0010*%
%ADD22C,0.0080*%
%ADD23C,0.0100*%
%ADD24C,0.0140*%
*
G04 Plot Data ***
*
G54D18*
G01X-0000250Y0051000D02*
Y0026500D01*
X0033500D01*
Y0051000D01*
X-0000250D01*
G54D15*
X0011000Y0041000D03*
X0012000D03*
X0013000D03*
X0014000D03*
X0015000D03*
X0016000D03*
X0017000D03*
X0018000D03*
X0019000D03*
X0020000D03*
X0021000D03*
X0022000D03*
X0023000D03*
X0024000D03*
X0025000D03*
X0011000Y0031000D03*
X0012000D03*
X0013000D03*
X0014000D03*
X0015000D03*
X0016000D03*
X0017000D03*
X0018000D03*
X0019000D03*
X0020000D03*
X0021000D03*
X0022000D03*
X0023000D03*
X0024000D03*
X0025000D03*
X0021000Y0050000D03*
Y0049000D03*
Y0048000D03*
Y0047000D03*
X0017000Y0050000D03*
Y0049000D03*
Y0048000D03*
Y0047000D03*
X0012000Y0050000D03*
Y0049000D03*
Y0048000D03*
Y0047000D03*
X0027000Y0050000D03*
Y0049000D03*
Y0048000D03*
X0003000Y0031000D03*
X0004000D03*
X0005000D03*
G54D16*
X0030000Y0047000D03*
Y0050000D03*
G54D17*
X0001000Y0049000D03*
Y0028000D03*
X0032000D03*
Y0049000D03*
M02*
