%
T1C0.028F200S100
X-011000Y011000
X-011000Y014000
T2C0.038F200S100
X-060000Y-005000
X-060000Y-004000
X-060000Y-003000
X-055500Y011500
X-055500Y012500
X-055500Y013500
X-055500Y014500
X-043500Y011500
X-043500Y012500
X-043500Y013500
X-043500Y014500
X-038000Y-009000
X-038000Y001000
X-037000Y-009000
X-036000Y-009000
X-036000Y001000
X-037000Y001000
X-035000Y-009000
X-034000Y-009000
X-034000Y001000
X-035000Y001000
X-033000Y-009000
X-032000Y-009000
X-032000Y001000
X-033000Y001000
X-031000Y-009000
X-031000Y001000
X-030500Y011500
X-030500Y012500
X-030500Y013500
X-030500Y014500
X-030000Y-009000
X-029000Y-009000
X-029000Y001000
X-030000Y001000
X-028000Y-009000
X-027000Y-009000
X-027000Y001000
X-028000Y001000
X-026000Y-009000
X-025000Y-009000
X-025000Y001000
X-026000Y001000
X-024000Y-009000
X-024000Y001000
X-018000Y012000
X-018000Y013000
X-018000Y014000
T3C0.110F200S100
X-064000Y-014000
X-064000Y014000
X-005000Y-014000
X-005000Y014000
M30
