*
G04 Mass Parameters ***
*
G04 Image ***
*
%INC:\USERS\DAN\DOCUMENTS\GITHUB\SOLAR_PANEL_MONITORING\SPMON_2025\PRJ.HW\ORCAD_SCHEMATIC_LAYOUT\SPMON_MASTERBOARD\LAYOUT\SPMON_MASTERBOARD.DRD*%
%ICAS*%
%MOIN*%
%IPPOS*%
%ASAXBY*%
G74*%FSLAN2X34Y34*%
*
G04 Aperture Definitions ***
*
%ADD10C,0.0620*%
%ADD11C,0.1100*%
%ADD12C,0.0100*%
%ADD13C,0.0120*%
%ADD14C,0.1000*%
%ADD15C,0.0700*%
%ADD16C,0.1400*%
%ADD17C,0.0500*%
%ADD18C,0.0670*%
%ADD19C,0.1050*%
%ADD20C,0.0010*%
%ADD21C,0.0140*%
*
G04 Plot Data ***
*
G54D12*
G01X0024625Y-0007833D02*
X0024708Y-0007667D01*
Y-0007500D01*
X0024625Y-0007333D01*
X0024125D01*
X0024042Y-0007500D01*
Y-0007667D01*
X0024125Y-0007833D01*
X0024625D01*
X0024708Y-0008000D01*
Y-0008167D01*
X0024625Y-0008333D01*
X0024125D01*
X0024042Y-0008167D01*
Y-0008000D01*
X0024125Y-0007833D01*
X0023092Y-0008167D02*
X0023258Y-0008333D01*
X0023592D01*
X0023758Y-0008167D01*
Y-0008000D01*
X0023425Y-0007667D01*
X0023758Y-0007333D01*
X0023092D01*
X0012312Y-0008333D02*
X0011729D01*
Y-0007333D01*
X0011446Y-0008000D02*
X0010779D01*
X0011446Y-0008333D02*
Y-0007833D01*
X0011196Y-0007333D01*
X0011029D01*
X0010779Y-0007833D01*
Y-0008333D01*
X0010162D02*
Y-0007333D01*
X0010496D02*
X0009829D01*
X0008962Y-0008333D02*
X0008879Y-0008167D01*
Y-0007500D01*
X0008962Y-0007333D01*
X0009462D01*
X0009546Y-0007500D01*
Y-0008167D01*
X0009462Y-0008333D01*
X0008962D01*
X0008262D02*
Y-0007333D01*
X0008596D02*
X0007929D01*
X0024708Y-0006250D02*
X0024264D01*
X0024486Y-0005806D01*
X0024597D01*
Y-0006472D01*
X0010814D02*
X0010703Y-0006361D01*
X0010647Y-0006250D01*
Y-0006028D01*
X0010703Y-0005917D01*
X0010814Y-0005806D01*
X0010925D01*
X0011036Y-0005917D01*
X0011092Y-0006028D01*
Y-0006250D01*
X0011036Y-0006361D01*
X0010925Y-0006472D01*
X0010814D01*
X0010392D02*
X0010169D01*
X0010280D02*
Y-0005806D01*
X0010169Y-0005917D01*
X0009803Y-0006472D02*
X0009581D01*
X0009692D02*
Y-0005806D01*
X0009581Y-0005917D01*
X0009103Y-0006472D02*
X0009214D01*
Y-0006361D01*
X0009103D01*
Y-0006472D01*
X0008458D02*
X0008347Y-0006361D01*
X0008292Y-0006250D01*
Y-0006028D01*
X0008347Y-0005917D01*
X0008458Y-0005806D01*
X0008570D01*
X0008681Y-0005917D01*
X0008736Y-0006028D01*
Y-0006250D01*
X0008681Y-0006361D01*
X0008570Y-0006472D01*
X0008458D01*
X0024708Y-0004750D02*
X0024264D01*
X0024486Y-0004306D01*
X0024597D01*
Y-0004972D01*
X0023564Y-0004861D02*
X0023675Y-0004972D01*
X0023897D01*
X0024008Y-0004861D01*
Y-0004750D01*
X0023786Y-0004528D01*
X0024008Y-0004306D01*
X0023564D01*
X0011036Y-0004639D02*
X0011092Y-0004528D01*
Y-0004417D01*
X0011036Y-0004306D01*
X0010703D01*
X0010647Y-0004417D01*
Y-0004528D01*
X0010703Y-0004639D01*
X0011036D01*
X0011092Y-0004750D01*
Y-0004861D01*
X0011036Y-0004972D01*
X0010703D01*
X0010647Y-0004861D01*
Y-0004750D01*
X0010703Y-0004639D01*
X0009947Y-0004861D02*
X0010058Y-0004972D01*
X0010280D01*
X0010392Y-0004861D01*
Y-0004750D01*
X0010169Y-0004528D01*
X0010392Y-0004306D01*
X0009947D01*
X0009414Y-0004972D02*
X0009303Y-0004861D01*
X0009247Y-0004750D01*
Y-0004528D01*
X0009303Y-0004417D01*
X0009414Y-0004306D01*
X0009525D01*
X0009636Y-0004417D01*
X0009692Y-0004528D01*
Y-0004750D01*
X0009636Y-0004861D01*
X0009525Y-0004972D01*
X0009414D01*
X0008881D02*
X0008992D01*
Y-0004861D01*
X0008881D01*
Y-0004972D01*
X0008236D02*
X0008125Y-0004861D01*
X0008069Y-0004750D01*
Y-0004528D01*
X0008125Y-0004417D01*
X0008236Y-0004306D01*
X0008347D01*
X0008458Y-0004417D01*
X0008514Y-0004528D01*
Y-0004750D01*
X0008458Y-0004861D01*
X0008347Y-0004972D01*
X0008236D01*
X0033112Y-0002833D02*
X0032612D01*
X0033279Y-0003333D02*
X0032612D01*
Y-0002333D01*
X0033279D01*
X0031996Y-0003333D02*
Y-0002333D01*
X0032329D02*
X0031662D01*
X0030796Y-0003333D02*
X0030712Y-0003167D01*
Y-0002500D01*
X0030796Y-0002333D01*
X0031296D01*
X0031379Y-0002500D01*
Y-0003167D01*
X0031296Y-0003333D01*
X0030796D01*
X0030429Y-0002333D02*
Y-0003333D01*
X0030262Y-0003167D01*
X0029929Y-0002500D01*
X0029762Y-0002333D01*
Y-0003333D01*
X0023925D02*
Y-0002833D01*
X0024258Y-0002333D02*
X0024008Y-0002833D01*
X0023842D01*
X0023592Y-0002333D01*
X0022975Y-0003333D02*
Y-0002333D01*
X0023308D02*
X0022642D01*
X0022025Y-0003000D02*
X0022358Y-0003333D01*
X0021692Y-0003167D02*
X0021775Y-0003333D01*
X0022108D01*
X0022192Y-0003167D01*
X0022358Y-0003000D01*
Y-0002500D01*
X0022275Y-0002333D01*
X0021775D01*
X0021692Y-0002500D01*
Y-0003167D01*
X0017408Y-0003333D02*
X0016825D01*
Y-0002333D01*
X0015958Y-0003333D02*
X0015875Y-0003167D01*
Y-0002500D01*
X0015958Y-0002333D01*
X0016458D01*
X0016542Y-0002500D01*
Y-0003167D01*
X0016458Y-0003333D01*
X0015958D01*
X0015258D02*
Y-0002333D01*
X0015592D02*
X0014925D01*
X0009587Y-0003333D02*
Y-0002333D01*
X0009421Y-0002500D01*
X0009254Y-0002833D01*
X0009087Y-0002500D01*
X0008921Y-0002333D01*
Y-0003333D01*
X0008637Y-0003000D02*
X0007971D01*
X0008637Y-0003333D02*
Y-0002833D01*
X0008387Y-0002333D01*
X0008221D01*
X0007971Y-0002833D01*
Y-0003333D01*
X0007687D02*
X0007354D01*
X0007521D02*
Y-0002333D01*
X0007687D02*
X0007354D01*
X0006321Y-0003333D02*
Y-0002333D01*
X0006237Y-0003333D02*
X0006737D01*
X0006904Y-0003000D01*
Y-0002667D01*
X0006737Y-0002333D01*
X0006237D01*
X0003150Y-0003333D02*
Y-0002333D01*
X0002983Y-0002500D01*
X0002817Y-0002833D01*
X0002650Y-0002500D01*
X0002483Y-0002333D01*
Y-0003333D01*
X0001867D02*
Y-0002833D01*
X0002200Y-0002333D02*
X0001950Y-0002833D01*
X0001783D01*
X0001533Y-0002333D01*
X0001250Y-0002500D02*
X0001167Y-0002333D01*
X0000667D01*
X0000583Y-0002500D01*
Y-0002667D01*
X0000667Y-0002833D01*
X0001167D01*
X0001250Y-0003000D01*
Y-0003167D01*
X0001167Y-0003333D01*
X0000667D01*
X0000583Y-0003167D01*
X0023437Y-0001333D02*
Y-0000333D01*
X0023771D02*
X0023104D01*
X0022571Y-0000833D02*
X0022821Y-0001333D01*
X0022154Y-0000833D02*
X0022654D01*
X0022821Y-0000667D01*
Y-0000500D01*
X0022654Y-0000333D01*
X0022154D01*
Y-0001333D01*
X0021871Y-0001000D02*
X0021204D01*
X0021871Y-0001333D02*
Y-0000833D01*
X0021621Y-0000333D01*
X0021454D01*
X0021204Y-0000833D01*
Y-0001333D01*
X0020921Y-0000833D02*
X0020254D01*
X0020921Y-0001333D02*
Y-0000333D01*
X0020254Y-0001333D02*
Y-0000333D01*
X0019971Y-0001167D02*
X0019887Y-0001333D01*
X0019387D01*
X0019304Y-0001167D01*
Y-0000500D01*
X0019387Y-0000333D01*
X0019887D01*
X0019971Y-0000500D01*
X0017696Y-0001333D02*
X0017112D01*
Y-0000333D01*
X0016829Y-0001333D02*
X0016246D01*
Y-0000333D01*
X0015962Y-0001333D02*
X0015629D01*
X0015796D02*
Y-0000333D01*
X0015962D02*
X0015629D01*
X0014929Y-0000833D02*
X0015179Y-0001333D01*
X0014512Y-0000833D02*
X0015012D01*
X0015179Y-0000667D01*
Y-0000500D01*
X0015012Y-0000333D01*
X0014512D01*
Y-0001333D01*
X0013646D02*
Y-0000333D01*
X0013562Y-0001333D02*
X0014062D01*
X0014229Y-0001000D01*
Y-0000667D01*
X0014062Y-0000333D01*
X0013562D01*
X0002075Y-0006250D02*
X0001575D01*
X0001825Y-0006000D02*
Y-0006500D01*
X0002075Y-0004500D02*
X0001575Y-0005000D01*
X0002075D02*
X0001575Y-0004500D01*
X0037300Y-0009050D02*
X-0000050D01*
X0037250Y-0009000D02*
X0000000D01*
X0037250Y-0007000D02*
X0000000D01*
X0037250Y-0005500D02*
X0000000D01*
X0037250Y-0004000D02*
X0000000D01*
X0037250Y-0003950D02*
X0000000D01*
X0037250Y-0002000D02*
X0000000D01*
X0037250Y-0001950D02*
X0000000D01*
X0037250Y0000000D02*
X0000000D01*
X0037300Y0000050D02*
X-0000050D01*
X0037300Y-0009000D02*
Y0000000D01*
X0037250Y-0009000D02*
Y0000000D01*
X0025708Y-0009000D02*
Y-0002000D01*
X0020158Y-0009000D02*
Y-0002000D01*
X0012092Y-0007000D02*
Y-0002000D01*
X0003700Y-0007000D02*
Y-0002000D01*
X0003650Y-0007000D02*
Y-0002000D01*
X-0000050Y-0009000D02*
Y0000000D01*
X0000000Y-0009000D02*
Y0000000D01*
X-0003750Y0009000D02*
X-0004250D01*
X-0004000Y0009250D02*
Y0008750D01*
X-0003750Y0028000D02*
X-0004250D01*
X-0004000Y0028250D02*
Y0027750D01*
X0019250Y0009000D02*
X0018750D01*
X0019000Y0009250D02*
Y0008750D01*
X0019250Y0028000D02*
X0018750D01*
X0019000Y0028250D02*
Y0027750D01*
X0011250Y0024250D02*
X0010750Y0023750D01*
X0011250D02*
X0010750Y0024250D01*
X0011250Y0023250D02*
X0010750Y0022750D01*
X0011250D02*
X0010750Y0023250D01*
X0011250Y0022250D02*
X0010750Y0021750D01*
X0011250D02*
X0010750Y0022250D01*
X0011250Y0021250D02*
X0010750Y0020750D01*
X0011250D02*
X0010750Y0021250D01*
X0011250Y0020250D02*
X0010750Y0019750D01*
X0011250D02*
X0010750Y0020250D01*
X0011250Y0019250D02*
X0010750Y0018750D01*
X0011250D02*
X0010750Y0019250D01*
X0011250Y0018250D02*
X0010750Y0017750D01*
X0011250D02*
X0010750Y0018250D01*
X0011250Y0017250D02*
X0010750Y0016750D01*
X0011250D02*
X0010750Y0017250D01*
X0011250Y0016250D02*
X0010750Y0015750D01*
X0011250D02*
X0010750Y0016250D01*
X0011250Y0015250D02*
X0010750Y0014750D01*
X0011250D02*
X0010750Y0015250D01*
X0011250Y0014250D02*
X0010750Y0013750D01*
X0011250D02*
X0010750Y0014250D01*
X0011250Y0013250D02*
X0010750Y0012750D01*
X0011250D02*
X0010750Y0013250D01*
X0011250Y0012250D02*
X0010750Y0011750D01*
X0011250D02*
X0010750Y0012250D01*
X0011250Y0011250D02*
X0010750Y0010750D01*
X0011250D02*
X0010750Y0011250D01*
X0011250Y0010250D02*
X0010750Y0009750D01*
X0011250D02*
X0010750Y0010250D01*
X0001250Y0024250D02*
X0000750Y0023750D01*
X0001250D02*
X0000750Y0024250D01*
X0001250Y0023250D02*
X0000750Y0022750D01*
X0001250D02*
X0000750Y0023250D01*
X0001250Y0022250D02*
X0000750Y0021750D01*
X0001250D02*
X0000750Y0022250D01*
X0001250Y0021250D02*
X0000750Y0020750D01*
X0001250D02*
X0000750Y0021250D01*
X0001250Y0020250D02*
X0000750Y0019750D01*
X0001250D02*
X0000750Y0020250D01*
X0001250Y0019250D02*
X0000750Y0018750D01*
X0001250D02*
X0000750Y0019250D01*
X0001250Y0018250D02*
X0000750Y0017750D01*
X0001250D02*
X0000750Y0018250D01*
X0001250Y0017250D02*
X0000750Y0016750D01*
X0001250D02*
X0000750Y0017250D01*
X0001250Y0016250D02*
X0000750Y0015750D01*
X0001250D02*
X0000750Y0016250D01*
X0001250Y0015250D02*
X0000750Y0014750D01*
X0001250D02*
X0000750Y0015250D01*
X0001250Y0014250D02*
X0000750Y0013750D01*
X0001250D02*
X0000750Y0014250D01*
X0001250Y0013250D02*
X0000750Y0012750D01*
X0001250D02*
X0000750Y0013250D01*
X0001250Y0012250D02*
X0000750Y0011750D01*
X0001250D02*
X0000750Y0012250D01*
X0001250Y0011250D02*
X0000750Y0010750D01*
X0001250D02*
X0000750Y0011250D01*
X0001250Y0010250D02*
X0000750Y0009750D01*
X0001250D02*
X0000750Y0010250D01*
X0016750Y0019750D02*
X0016250Y0019250D01*
X0016750D02*
X0016250Y0019750D01*
X0016750Y0020750D02*
X0016250Y0020250D01*
X0016750D02*
X0016250Y0020750D01*
X0016750Y0021750D02*
X0016250Y0021250D01*
X0016750D02*
X0016250Y0021750D01*
X0016750Y0022750D02*
X0016250Y0022250D01*
X0016750D02*
X0016250Y0022750D01*
G54D17*
G01X-0005500Y0030000D02*
Y0007250D01*
X0021000D01*
Y0030000D01*
X-0005500D01*
G54D21*
%LPC*%
X-0004000Y0009000D03*
Y0028000D03*
X0019000Y0009000D03*
Y0028000D03*
X0011000Y0024000D03*
Y0023000D03*
Y0022000D03*
Y0021000D03*
Y0020000D03*
Y0019000D03*
Y0018000D03*
Y0017000D03*
Y0016000D03*
Y0015000D03*
Y0014000D03*
Y0013000D03*
Y0012000D03*
Y0011000D03*
Y0010000D03*
X0001000Y0024000D03*
Y0023000D03*
Y0022000D03*
Y0021000D03*
Y0020000D03*
Y0019000D03*
Y0018000D03*
Y0017000D03*
Y0016000D03*
Y0015000D03*
Y0014000D03*
Y0013000D03*
Y0012000D03*
Y0011000D03*
Y0010000D03*
X0016500Y0019500D03*
Y0020500D03*
Y0021500D03*
Y0022500D03*
%LPD*%
M02*
