*
G04 Mass Parameters ***
*
G04 Image ***
*
%INC:\USERS\DAN\DOCUMENTS\GITHUB\SOLAR_PANEL_MONITORING\SPMON_2025\PRJ.HW\ORCAD_SCHEMATIC_LAYOUT\SPMON_MASTERBOARD\LAYOUT\SPMON_MASTERBOARD.TOP*%
%ICAS*%
%MOIN*%
%IPPOS*%
%ASAXBY*%
G74*%FSLAN2X34Y34*%
*
G04 Aperture Definitions ***
*
%ADD10C,0.0620*%
%ADD11C,0.1100*%
%ADD12C,0.0100*%
%ADD13C,0.0120*%
%ADD14C,0.1000*%
%ADD15C,0.0700*%
%ADD16C,0.1400*%
%ADD17C,0.0500*%
%ADD18C,0.0670*%
%ADD19C,0.1050*%
%ADD20C,0.0010*%
%ADD21C,0.0140*%
*
G04 Plot Data ***
*
G54D12*
G01X0005137Y0028792D02*
X0005221Y0028708D01*
X0005262Y0028625D01*
Y0028458D01*
X0005221Y0028375D01*
X0005137Y0028292D01*
X0005054D01*
X0004971Y0028375D01*
X0004929Y0028458D01*
Y0028625D01*
X0004971Y0028708D01*
X0005054Y0028792D01*
X0005137D01*
X0005712D02*
X0005796Y0028708D01*
X0005837Y0028625D01*
Y0028458D01*
X0005796Y0028375D01*
X0005712Y0028292D01*
X0005629D01*
X0005546Y0028375D01*
X0005504Y0028458D01*
Y0028625D01*
X0005546Y0028708D01*
X0005629Y0028792D01*
X0005712D01*
X0006287D02*
X0006371Y0028708D01*
X0006412Y0028625D01*
Y0028458D01*
X0006371Y0028375D01*
X0006287Y0028292D01*
X0006204D01*
X0006121Y0028375D01*
X0006079Y0028458D01*
Y0028625D01*
X0006121Y0028708D01*
X0006204Y0028792D01*
X0006287D01*
X0006654D02*
X0006821D01*
X0006737D02*
Y0028292D01*
X0006821Y0028375D01*
X-0001292Y0016137D02*
X-0001208Y0016221D01*
X-0001125Y0016262D01*
X-0000958D01*
X-0000875Y0016221D01*
X-0000792Y0016137D01*
Y0016054D01*
X-0000875Y0015971D01*
X-0000958Y0015929D01*
X-0001125D01*
X-0001208Y0015971D01*
X-0001292Y0016054D01*
Y0016137D01*
Y0016712D02*
X-0001208Y0016796D01*
X-0001125Y0016837D01*
X-0000958D01*
X-0000875Y0016796D01*
X-0000792Y0016712D01*
Y0016629D01*
X-0000875Y0016546D01*
X-0000958Y0016504D01*
X-0001125D01*
X-0001208Y0016546D01*
X-0001292Y0016629D01*
Y0016712D01*
X-0001125Y0017079D02*
Y0017412D01*
X-0000792Y0017246D01*
Y0017162D01*
X-0001292D01*
Y0017654D02*
Y0017821D01*
Y0017737D02*
X-0000792D01*
X-0000875Y0017821D01*
X0011000Y0029625D02*
Y0027375D01*
X0001000Y0029625D02*
Y0027375D01*
X-0001000Y0015492D02*
Y0010000D01*
X-0002125D02*
X0000125D01*
X-0000878Y0010562D02*
Y0010367D01*
X-0000968Y0010562D02*
Y0010097D01*
X-0001058Y0010562D02*
Y0010173D01*
X-0001148Y0010562D02*
Y0010442D01*
X-0000837Y0010490D02*
X-0001163D01*
X-0000867Y0010400D02*
X-0001133D01*
X-0000897Y0010310D02*
X-0001103D01*
X-0000927Y0010220D02*
X-0001073D01*
X-0000957Y0010130D02*
X-0001043D01*
X-0000987Y0010040D02*
X-0001013D01*
X-0000813Y0010562D02*
X-0001188D01*
X-0000813D02*
X-0001000Y0010000D01*
X-0001188Y0010562D02*
X-0001000Y0010000D01*
X0010927Y0028524D02*
Y0028476D01*
X0010837Y0028554D02*
Y0028446D01*
X0010747Y0028584D02*
Y0028416D01*
X0010657Y0028614D02*
Y0028386D01*
X0010567Y0028644D02*
Y0028356D01*
X0010477Y0028674D02*
Y0028326D01*
X0010632Y0028622D02*
X0010437D01*
X0010903Y0028532D02*
X0010437D01*
X0010827Y0028442D02*
X0010437D01*
X0010557Y0028352D02*
X0010437D01*
Y0028687D02*
Y0028312D01*
Y0028687D02*
X0011000Y0028500D01*
X0010437Y0028312D01*
X0007508Y0028500D02*
X0011000D01*
X-0001000Y0018508D02*
Y0024000D01*
X0001490Y0028663D02*
Y0028336D01*
X0001400Y0028633D02*
Y0028366D01*
X0001310Y0028603D02*
Y0028396D01*
X0001220Y0028573D02*
Y0028426D01*
X0001130Y0028543D02*
Y0028456D01*
X0001040Y0028513D02*
Y0028486D01*
X0001562Y0028622D02*
X0001367D01*
X0001562Y0028532D02*
X0001097D01*
X0001562Y0028442D02*
X0001173D01*
X0001562Y0028352D02*
X0001442D01*
X0001562Y0028687D02*
Y0028312D01*
X0001000Y0028500D02*
X0001562Y0028312D01*
Y0028687D02*
X0001000Y0028500D01*
X0004492D02*
X0001000D01*
X-0002125Y0024000D02*
X0000125D01*
X-0000878Y0023632D02*
Y0023437D01*
X-0000968Y0023903D02*
Y0023437D01*
X-0001058Y0023827D02*
Y0023437D01*
X-0001148Y0023557D02*
Y0023437D01*
X-0000976Y0023927D02*
X-0001024D01*
X-0000946Y0023837D02*
X-0001054D01*
X-0000916Y0023747D02*
X-0001084D01*
X-0000886Y0023657D02*
X-0001114D01*
X-0000856Y0023567D02*
X-0001144D01*
X-0000826Y0023477D02*
X-0001174D01*
X-0000813Y0023437D02*
X-0001188D01*
X-0001000Y0024000D02*
X-0001188Y0023437D01*
X-0001000Y0024000D02*
X-0000813Y0023437D01*
G54D13*
G01X0016500Y0022500D02*
X0015000D01*
X0012500Y0020000D01*
X0011000D01*
Y0011000D02*
X0015000D01*
Y0020500D01*
X0016500D01*
Y0019500D02*
X0018250Y0017750D01*
Y0013250D01*
X0015000Y0010000D01*
X0011000D01*
Y0023000D02*
X0012000Y0024000D01*
X0018000D01*
X0018500Y0023500D01*
Y0022250D01*
X0017750Y0021500D01*
X0016500D01*
G54D10*
X0011000Y0024000D03*
Y0023000D03*
Y0022000D03*
Y0021000D03*
Y0020000D03*
Y0019000D03*
Y0018000D03*
Y0017000D03*
Y0016000D03*
Y0015000D03*
Y0014000D03*
Y0013000D03*
Y0012000D03*
Y0011000D03*
Y0010000D03*
X0001000Y0024000D03*
Y0023000D03*
Y0022000D03*
Y0021000D03*
Y0020000D03*
Y0019000D03*
Y0018000D03*
Y0017000D03*
Y0016000D03*
Y0015000D03*
Y0014000D03*
Y0013000D03*
Y0012000D03*
Y0011000D03*
Y0010000D03*
X0016500Y0019500D03*
Y0020500D03*
Y0021500D03*
Y0022500D03*
G54D11*
X-0004000Y0009000D03*
Y0028000D03*
X0019000Y0009000D03*
Y0028000D03*
G54D21*
%LPC*%
X-0004000Y0009000D03*
Y0028000D03*
X0019000Y0009000D03*
Y0028000D03*
X0011000Y0024000D03*
Y0023000D03*
Y0022000D03*
Y0021000D03*
Y0020000D03*
Y0019000D03*
Y0018000D03*
Y0017000D03*
Y0016000D03*
Y0015000D03*
Y0014000D03*
Y0013000D03*
Y0012000D03*
Y0011000D03*
Y0010000D03*
X0001000Y0024000D03*
Y0023000D03*
Y0022000D03*
Y0021000D03*
Y0020000D03*
Y0019000D03*
Y0018000D03*
Y0017000D03*
Y0016000D03*
Y0015000D03*
Y0014000D03*
Y0013000D03*
Y0012000D03*
Y0011000D03*
Y0010000D03*
X0016500Y0019500D03*
Y0020500D03*
Y0021500D03*
Y0022500D03*
%LPD*%
M02*
