*
G04 Mass Parameters ***
*
G04 Image ***
*
%INC:\USERS\DAN\DOCUMENTS\GITHUB\SOLAR_PANEL_MONITORING\SPMON_2025\PRJ.HW\ORCAD_SCHEMATIC_LAYOUT\SPMON_MASTERBOARD\LAYOUT\SPMON_MASTERBOARD.GND*%
%ICAS*%
%MOIN*%
%IPPOS*%
%ASAXBY*%
G74*%FSLAN2X34Y34*%
*
G04 Aperture Definitions ***
*
%ADD10C,0.0620*%
%ADD11C,0.1100*%
%ADD12C,0.0100*%
%ADD13C,0.0120*%
%ADD14C,0.1000*%
%ADD15C,0.0700*%
%ADD16C,0.1400*%
%ADD17C,0.0500*%
*
G04 Plot Data ***
*
G54D17*
G01X-0005500Y0030000D02*
X0032500D01*
Y0007250D01*
X-0005500D01*
Y0030000D01*
G54D15*
X0011000Y0024000D03*
Y0023000D03*
Y0022000D03*
Y0021000D03*
Y0020000D03*
Y0019000D03*
Y0018000D03*
Y0017000D03*
Y0016000D03*
Y0015000D03*
Y0014000D03*
Y0013000D03*
Y0012000D03*
Y0011000D03*
Y0010000D03*
X0001000Y0024000D03*
Y0023000D03*
Y0022000D03*
Y0021000D03*
Y0020000D03*
Y0019000D03*
Y0018000D03*
Y0017000D03*
Y0016000D03*
Y0015000D03*
Y0014000D03*
Y0013000D03*
Y0012000D03*
Y0011000D03*
Y0010000D03*
X0024500Y0019500D03*
Y0020500D03*
Y0021500D03*
Y0022500D03*
G54D16*
X-0004000Y0009000D03*
Y0028000D03*
X0030000Y0009000D03*
Y0028000D03*
M02*
