*
G04 Mass Parameters ***
*
G04 Image ***
*
%INC:\USERS\DAN\DOCUMENTS\GITHUB\SOLAR_PANEL_MONITORING\SPMON_2025\PRJ.HW\ORCAD_SCHEMATIC_LAYOUT\SPMON_MASTERBOARD\LAYOUT\SPMON_MASTERBOARD.AST*%
%ICAS*%
%MOIN*%
%IPPOS*%
%ASAXBY*%
G74*%FSLAN2X34Y34*%
*
G04 Aperture Definitions ***
*
%ADD10C,0.0620*%
%ADD11C,0.1100*%
%ADD12C,0.0100*%
%ADD13C,0.0120*%
%ADD14C,0.1000*%
%ADD15C,0.0700*%
%ADD16C,0.1400*%
%ADD17C,0.0500*%
%ADD18C,0.0670*%
%ADD19C,0.1050*%
%ADD20C,0.0010*%
*
G04 Plot Data ***
*
G54D12*
G01X-0005206Y0029311D02*
X-0005161Y0029222D01*
X-0004894D01*
X-0004850Y0029311D01*
Y0029489D01*
X-0004939Y0029578D01*
X-0005206D01*
Y0029755D01*
X-0004850D01*
X0029150Y0010400D02*
X0028794D01*
X0028972Y0010755D01*
X0029061D01*
Y0010222D01*
X0028794Y0029311D02*
X0028883Y0029222D01*
X0029061D01*
X0029150Y0029311D01*
Y0029400D01*
X0028972Y0029578D01*
X0029150Y0029755D01*
X0028794D01*
X-0005161Y0010489D02*
X-0004894D01*
X-0004850Y0010400D01*
Y0010311D01*
X-0004894Y0010222D01*
X-0005161D01*
X-0005206Y0010311D01*
Y0010400D01*
X-0005028Y0010755D01*
X0022042Y0023158D02*
Y0022992D01*
Y0023075D02*
X0021542D01*
X0021625Y0022992D01*
X0022042Y0022667D02*
Y0022333D01*
X0021708Y0022667D01*
X0021625D01*
X0021542Y0022625D01*
Y0022375D01*
X0021625Y0022333D01*
X0022042Y0022092D02*
Y0021758D01*
X0021708Y0022092D01*
X0021625D01*
X0021542Y0022050D01*
Y0021800D01*
X0021625Y0021758D01*
X0021958Y0021183D02*
X0022042Y0021267D01*
Y0021433D01*
X0021958Y0021517D01*
X0021875D01*
X0021708Y0021350D01*
X0021542Y0021517D01*
Y0021183D01*
X0021875Y0020942D02*
Y0020608D01*
X0022042Y0020942D02*
X0021792D01*
X0021542Y0020817D01*
Y0020733D01*
X0021792Y0020608D01*
X0022042D01*
X0021542Y0020367D02*
X0022042D01*
X0021958Y0020283D01*
X0021625Y0020117D01*
X0021542Y0020033D01*
X0022042D01*
Y0019792D02*
Y0019625D01*
Y0019708D02*
X0021542D01*
Y0019792D02*
Y0019625D01*
X0020917Y0020325D02*
Y0020158D01*
Y0020242D02*
X0020417D01*
X0020500Y0020158D01*
X0020750Y0019542D02*
X0020833D01*
X0020917Y0019583D01*
Y0019750D01*
X0020833Y0019792D01*
X0020417D01*
Y0019833D02*
Y0019667D01*
X0014458Y0015742D02*
Y0015908D01*
Y0015825D02*
X0014958D01*
X0014875Y0015908D01*
X0014958Y0016233D02*
X0014792D01*
X0014458Y0016400D01*
X0014792Y0016567D01*
X0014958D01*
X0014708Y0016808D02*
Y0017142D01*
X0014458Y0017550D02*
X0014958D01*
Y0017383D02*
Y0017717D01*
X0014458Y0017958D02*
Y0018125D01*
Y0018042D02*
X0014958D01*
Y0017958D02*
Y0018125D01*
X0014458Y0018450D02*
X0014708Y0018700D01*
X0014958Y0018450D01*
Y0018783D02*
X0014458D01*
X0014958Y0019025D02*
X0014792D01*
X0014458Y0019192D01*
X0014792Y0019358D01*
X0014958D01*
X0014708Y0019683D02*
Y0019933D01*
X0014458Y0019600D02*
Y0019933D01*
X0014958D01*
Y0019600D01*
X0014458Y0020467D02*
X0014958D01*
X0014458Y0020508D02*
Y0020258D01*
X0014625Y0020175D01*
X0014792D01*
X0014958Y0020258D01*
Y0020508D01*
X0014708Y0020750D02*
Y0021083D01*
X0014458Y0021325D02*
Y0021658D01*
X0014792Y0021325D01*
X0014875D01*
X0014958Y0021367D01*
Y0021617D01*
X0014875Y0021658D01*
X0014542Y0022233D02*
X0014458Y0022150D01*
Y0021983D01*
X0014542Y0021900D01*
X0014625D01*
X0014792Y0022067D01*
X0014958Y0021900D01*
Y0022233D01*
X0014708Y0022808D02*
Y0022558D01*
X0014792Y0022475D01*
X0014875D01*
X0014958Y0022558D01*
Y0022808D01*
X0014458D01*
X0014875Y0023050D02*
X0014958Y0023092D01*
Y0023342D01*
X0014875Y0023383D01*
X0014792D01*
X0014708Y0023342D01*
Y0023092D01*
X0014625Y0023050D01*
X0014542D01*
X0014458Y0023092D01*
Y0023342D01*
X0014542Y0023383D01*
X0014708Y0023708D02*
Y0023958D01*
X0014458Y0023625D02*
Y0023958D01*
X0014958D01*
Y0023625D01*
X0015583Y0023133D02*
Y0023300D01*
Y0023217D02*
X0016083D01*
X0016000Y0023300D01*
X0016083Y0023625D02*
X0015667D01*
X0015583Y0023667D01*
Y0023917D01*
X0015667Y0023958D01*
X0016083D01*
G54D17*
G01X-0005500Y0030000D02*
X0032500D01*
Y0007250D01*
X-0005500D01*
Y0030000D01*
M02*
