%
T1C0.038F200S100
X001000Y010000
X001000Y011000
X001000Y012000
X001000Y013000
X001000Y014000
X001000Y015000
X001000Y016000
X001000Y017000
X001000Y018000
X001000Y019000
X001000Y020000
X001000Y021000
X001000Y022000
X001000Y023000
X001000Y024000
X011000Y010000
X011000Y011000
X011000Y012000
X011000Y013000
X011000Y014000
X011000Y015000
X011000Y016000
X011000Y017000
X011000Y018000
X011000Y019000
X011000Y020000
X011000Y021000
X011000Y022000
X011000Y023000
X011000Y024000
X016500Y019500
X016500Y020500
X016500Y021500
X016500Y022500
T2C0.110F200S100
X-004000Y009000
X-004000Y028000
X019000Y009000
X019000Y028000
M30
